<svg width="25" height="24" viewBox="0 0 25 24" fill="none" xmlns="http://www.w3.org/2000/svg">
<path fill-rule="evenodd" clip-rule="evenodd" d="M1.5 5.66667C1.5 3.11438 3.61438 1 6.16667 1H18.8333C21.3856 1 23.5 3.11438 23.5 5.66667V13.7778C23.5 16.3301 21.3856 18.4444 18.8333 18.4444H10.6111C9.57144 18.4444 8.67945 18.7265 7.98889 19.2444L7.97706 19.2532L3.08817 22.8087C2.78399 23.03 2.38139 23.0618 2.04622 22.8911C1.71105 22.7204 1.5 22.3761 1.5 22V5.66667ZM3.5 20.0362L6.79505 17.6398C7.88113 16.8276 9.20899 16.4444 10.6111 16.4444H18.8333C20.281 16.4444 21.5 15.2255 21.5 13.7778V5.66667C21.5 4.21895 20.281 3 18.8333 3H6.16667C4.71895 3 3.5 4.21895 3.5 5.66667V20.0362Z" fill="#6F6767"/>
<path fill-rule="evenodd" clip-rule="evenodd" d="M6.5 7C6.5 6.44772 6.94772 6 7.5 6H17.5C18.0523 6 18.5 6.44772 18.5 7C18.5 7.55228 18.0523 8 17.5 8H7.5C6.94772 8 6.5 7.55228 6.5 7Z" fill="#6F6767"/>
<path fill-rule="evenodd" clip-rule="evenodd" d="M6.5 12C6.5 11.4477 6.94772 11 7.5 11H12.5C13.0523 11 13.5 11.4477 13.5 12C13.5 12.5523 13.0523 13 12.5 13H7.5C6.94772 13 6.5 12.5523 6.5 12Z" fill="#6F6767"/>
</svg>
