<svg width="25" height="24" viewBox="0 0 25 24" fill="none" xmlns="http://www.w3.org/2000/svg">
<path d="M20.6999 8.18V3C20.6999 2.73478 20.5946 2.48043 20.407 2.29289C20.2195 2.10536 19.9651 2 19.6999 2C19.4347 2 19.1804 2.10536 18.9928 2.29289C18.8053 2.48043 18.6999 2.73478 18.6999 3V8.18C18.1208 8.3902 17.6204 8.77363 17.2668 9.27816C16.9131 9.7827 16.7234 10.3839 16.7234 11C16.7234 11.6161 16.9131 12.2173 17.2668 12.7218C17.6204 13.2264 18.1208 13.6098 18.6999 13.82V21C18.6999 21.2652 18.8053 21.5196 18.9928 21.7071C19.1804 21.8946 19.4347 22 19.6999 22C19.9651 22 20.2195 21.8946 20.407 21.7071C20.5946 21.5196 20.6999 21.2652 20.6999 21V13.82C21.2791 13.6098 21.7795 13.2264 22.1331 12.7218C22.4867 12.2173 22.6764 11.6161 22.6764 11C22.6764 10.3839 22.4867 9.7827 22.1331 9.27816C21.7795 8.77363 21.2791 8.3902 20.6999 8.18ZM19.6999 12C19.5021 12 19.3088 11.9414 19.1444 11.8315C18.9799 11.7216 18.8517 11.5654 18.776 11.3827C18.7004 11.2 18.6806 10.9989 18.7191 10.8049C18.7577 10.6109 18.853 10.4327 18.9928 10.2929C19.1327 10.153 19.3109 10.0578 19.5048 10.0192C19.6988 9.98063 19.8999 10.0004 20.0826 10.0761C20.2653 10.1518 20.4215 10.28 20.5314 10.4444C20.6413 10.6089 20.6999 10.8022 20.6999 11C20.6999 11.2652 20.5946 11.5196 20.407 11.7071C20.2195 11.8946 19.9651 12 19.6999 12ZM13.6999 14.18V3C13.6999 2.73478 13.5946 2.48043 13.407 2.29289C13.2195 2.10536 12.9651 2 12.6999 2C12.4347 2 12.1804 2.10536 11.9928 2.29289C11.8053 2.48043 11.6999 2.73478 11.6999 3V14.18C11.1208 14.3902 10.6204 14.7736 10.2668 15.2782C9.91315 15.7827 9.72345 16.3839 9.72345 17C9.72345 17.6161 9.91315 18.2173 10.2668 18.7218C10.6204 19.2264 11.1208 19.6098 11.6999 19.82V21C11.6999 21.2652 11.8053 21.5196 11.9928 21.7071C12.1804 21.8946 12.4347 22 12.6999 22C12.9651 22 13.2195 21.8946 13.407 21.7071C13.5946 21.5196 13.6999 21.2652 13.6999 21V19.82C14.2791 19.6098 14.7795 19.2264 15.1331 18.7218C15.4867 18.2173 15.6764 17.6161 15.6764 17C15.6764 16.3839 15.4867 15.7827 15.1331 15.2782C14.7795 14.7736 14.2791 14.3902 13.6999 14.18ZM12.6999 18C12.5021 18 12.3088 17.9414 12.1444 17.8315C11.9799 17.7216 11.8517 17.5654 11.776 17.3827C11.7004 17.2 11.6806 16.9989 11.7191 16.8049C11.7577 16.6109 11.853 16.4327 11.9928 16.2929C12.1327 16.153 12.3109 16.0578 12.5048 16.0192C12.6988 15.9806 12.8999 16.0004 13.0826 16.0761C13.2653 16.1518 13.4215 16.28 13.5314 16.4444C13.6413 16.6089 13.6999 16.8022 13.6999 17C13.6999 17.2652 13.5946 17.5196 13.407 17.7071C13.2195 17.8946 12.9651 18 12.6999 18ZM6.69993 6.18V3C6.69993 2.73478 6.59457 2.48043 6.40703 2.29289C6.2195 2.10536 5.96514 2 5.69993 2C5.43471 2 5.18036 2.10536 4.99282 2.29289C4.80528 2.48043 4.69993 2.73478 4.69993 3V6.18C4.12077 6.3902 3.62039 6.77363 3.26677 7.27817C2.91315 7.7827 2.72345 8.38388 2.72345 9C2.72345 9.61612 2.91315 10.2173 3.26677 10.7218C3.62039 11.2264 4.12077 11.6098 4.69993 11.82V21C4.69993 21.2652 4.80528 21.5196 4.99282 21.7071C5.18036 21.8946 5.43471 22 5.69993 22C5.96514 22 6.2195 21.8946 6.40703 21.7071C6.59457 21.5196 6.69993 21.2652 6.69993 21V11.82C7.27908 11.6098 7.77947 11.2264 8.13308 10.7218C8.4867 10.2173 8.6764 9.61612 8.6764 9C8.6764 8.38388 8.4867 7.7827 8.13308 7.27817C7.77947 6.77363 7.27908 6.3902 6.69993 6.18ZM5.69993 10C5.50215 10 5.30881 9.94135 5.14436 9.83147C4.97991 9.72159 4.85173 9.56541 4.77605 9.38268C4.70036 9.19996 4.68056 8.99889 4.71914 8.80491C4.75773 8.61093 4.85297 8.43275 4.99282 8.29289C5.13267 8.15304 5.31086 8.0578 5.50484 8.01921C5.69882 7.98063 5.89988 8.00043 6.08261 8.07612C6.26534 8.15181 6.42151 8.27998 6.5314 8.44443C6.64128 8.60888 6.69993 8.80222 6.69993 9C6.69993 9.26522 6.59457 9.51957 6.40703 9.70711C6.2195 9.89464 5.96514 10 5.69993 10Z" fill="#6F6767"/>
</svg>
