<svg width="25" height="24" viewBox="0 0 25 24" fill="none" xmlns="http://www.w3.org/2000/svg">
<path d="M22.82 6.62C22.7185 6.37565 22.5243 6.18147 22.28 6.08C22.1597 6.02876 22.0306 6.00158 21.9 6H16.9C16.6347 6 16.3804 6.10536 16.1929 6.29289C16.0053 6.48043 15.9 6.73478 15.9 7C15.9 7.26522 16.0053 7.51957 16.1929 7.70711C16.3804 7.89464 16.6347 8 16.9 8H19.49L13.9 13.59L10.61 10.29C10.517 10.1963 10.4064 10.1219 10.2845 10.0711C10.1627 10.0203 10.032 9.9942 9.89996 9.9942C9.76795 9.9942 9.63725 10.0203 9.51539 10.0711C9.39353 10.1219 9.28293 10.1963 9.18996 10.29L3.18996 16.29C3.09623 16.383 3.02184 16.4936 2.97107 16.6154C2.9203 16.7373 2.89417 16.868 2.89417 17C2.89417 17.132 2.9203 17.2627 2.97107 17.3846C3.02184 17.5064 3.09623 17.617 3.18996 17.71C3.28293 17.8037 3.39353 17.8781 3.51539 17.9289C3.63725 17.9797 3.76795 18.0058 3.89996 18.0058C4.03198 18.0058 4.16268 17.9797 4.28454 17.9289C4.4064 17.8781 4.517 17.8037 4.60996 17.71L9.89996 12.41L13.19 15.71C13.2829 15.8037 13.3935 15.8781 13.5154 15.9289C13.6372 15.9797 13.768 16.0058 13.9 16.0058C14.032 16.0058 14.1627 15.9797 14.2845 15.9289C14.4064 15.8781 14.517 15.8037 14.61 15.71L20.9 9.41V12C20.9 12.2652 21.0053 12.5196 21.1929 12.7071C21.3804 12.8946 21.6347 13 21.9 13C22.1652 13 22.4195 12.8946 22.6071 12.7071C22.7946 12.5196 22.9 12.2652 22.9 12V7C22.8984 6.86932 22.8712 6.74022 22.82 6.62Z" fill="#6F6767"/>
</svg>
