<svg width="25" height="24" viewBox="0 0 25 24" fill="none" xmlns="http://www.w3.org/2000/svg">
<path d="M5.09991 13C5.09991 9.68629 7.7862 7 11.0999 7M5.09991 13C5.09991 14.6484 5.76463 16.1415 6.84065 17.226C6.94442 17.3305 6.99631 17.3828 7.02694 17.4331C7.05616 17.4811 7.07318 17.5224 7.08623 17.5771C7.09991 17.6343 7.09991 17.6995 7.09991 17.8298V20.2C7.09991 20.48 7.09991 20.62 7.1544 20.727C7.20234 20.8211 7.27883 20.8976 7.37291 20.9455C7.47987 21 7.61988 21 7.89991 21H9.79991C10.0799 21 10.2199 21 10.3269 20.9455C10.421 20.8976 10.4975 20.8211 10.5454 20.727C10.5999 20.62 10.5999 20.48 10.5999 20.2V19.8C10.5999 19.52 10.5999 19.38 10.6544 19.273C10.7023 19.1789 10.7788 19.1024 10.8729 19.0545C10.9799 19 11.1199 19 11.3999 19H12.7999C13.0799 19 13.2199 19 13.3269 19.0545C13.421 19.1024 13.4975 19.1789 13.5454 19.273C13.5999 19.38 13.5999 19.52 13.5999 19.8V20.2C13.5999 20.48 13.5999 20.62 13.6544 20.727C13.7023 20.8211 13.7788 20.8976 13.8729 20.9455C13.9799 21 14.1199 21 14.3999 21H16.3C16.58 21 16.72 21 16.827 20.9455C16.9211 20.8976 16.9975 20.8211 17.0455 20.727C17.1 20.62 17.1 20.48 17.1 20.2V19.2243C17.1 19.0223 17.1 18.9212 17.1287 18.8401C17.1563 18.7624 17.191 18.708 17.2499 18.6502C17.3114 18.59 17.4155 18.5417 17.6237 18.445C18.6059 17.989 19.444 17.2751 20.0511 16.3902C20.1578 16.2346 20.2112 16.1568 20.2682 16.1108C20.3227 16.0668 20.3716 16.0411 20.4387 16.021C20.5089 16 20.5922 16 20.7587 16H21.3C21.58 16 21.72 16 21.827 15.9455C21.9211 15.8976 21.9975 15.8211 22.0455 15.727C22.1 15.62 22.1 15.48 22.1 15.2V11.7857C22.1 11.5192 22.1 11.3859 22.0504 11.283C22.0013 11.181 21.919 11.0987 21.8169 11.0495C21.7141 11 21.5808 11 21.3142 11C21.1213 11 21.0248 11 20.9471 10.9738C20.8633 10.9456 20.8045 10.908 20.7437 10.8438C20.6873 10.7842 20.6413 10.6846 20.5492 10.4855C20.2538 9.84622 19.8491 9.26777 19.3592 8.77404C19.2555 8.66945 19.2036 8.61716 19.1729 8.56687C19.1437 8.51889 19.1267 8.47759 19.1137 8.42294C19.1 8.36567 19.1 8.30051 19.1 8.17018V7.06058C19.1 6.70053 19.1 6.52051 19.025 6.39951C18.9593 6.29351 18.8564 6.21588 18.7364 6.18184C18.5995 6.14299 18.4264 6.19245 18.0802 6.29136L15.7076 6.96922C15.6673 6.98074 15.6472 6.9865 15.6267 6.99054C15.6085 6.99414 15.5901 6.99671 15.5716 6.99826C15.5508 7 15.5296 7 15.4874 7H11.0999M5.09991 13H4.09998C2.99541 13 2.09998 12.1046 2.09998 11C2.09998 10.2597 2.50217 9.61337 3.09998 9.26756M11.0999 7H15.0645C15.0879 6.8367 15.1 6.66976 15.1 6.5C15.1 4.567 13.533 3 11.6 3C9.66698 3 8.09998 4.567 8.09998 6.5C8.09998 6.9172 8.17297 7.31736 8.30689 7.68839C9.14112 7.24881 10.0914 7 11.0999 7Z" stroke="#6F6767" stroke-width="2" stroke-linecap="round" stroke-linejoin="round"/>
</svg>
